<svg width="35" height="35" viewBox="0 0 35 35" fill="none" xmlns="http://www.w3.org/2000/svg">
<g id="arrow-up">
<path id="Vector" d="M29.3999 4.8999L17.1499 17.1499M29.3999 4.8999V11.7905M29.3999 4.8999H22.5093M27.8687 17.9155V24.4999C27.8687 26.2151 27.8687 27.0727 27.5348 27.7278C27.2413 28.304 26.7727 28.7725 26.1965 29.0661C25.5415 29.3999 24.6838 29.3999 22.9687 29.3999H9.7999C8.08475 29.3999 7.22716 29.3999 6.57206 29.0661C5.9958 28.7725 5.5273 28.304 5.2337 27.7278C4.8999 27.0727 4.8999 26.2151 4.8999 24.4999V11.3312C4.8999 9.616 4.8999 8.75841 5.2337 8.10331C5.5273 7.52705 5.9958 7.05855 6.57206 6.76495C7.22716 6.43115 8.08473 6.43115 9.7999 6.43115H16.3843" stroke="black" stroke-width="2.5" stroke-linecap="round" stroke-linejoin="round"/>
</g>
</svg>
