<svg width="50" height="50" viewBox="0 0 50 50" fill="none" xmlns="http://www.w3.org/2000/svg">
<g id="close">
<path id="Vector" d="M41.0262 15.1194L41.0339 15.1117L41.0414 15.1039C41.8254 14.2941 42.2597 13.209 42.2498 12.082C42.24 10.9551 41.7869 9.87765 40.989 9.08164C40.1912 8.28571 39.1126 7.83476 37.9857 7.82499C36.8587 7.81522 35.7724 8.2474 34.9609 9.02934L34.9531 9.03688L34.9454 9.04455L25.0375 18.9293L15.1366 9.05156C14.7413 8.64548 14.2696 8.32153 13.7486 8.09824C13.2239 7.87341 12.6598 7.75511 12.089 7.75016C11.5183 7.74521 10.9522 7.85372 10.4237 8.06941C9.89529 8.28511 9.415 8.60372 9.01097 9.00681L9.89382 9.89173L9.01097 9.00681C8.60693 9.4099 8.28725 9.8894 8.07072 10.4174C7.85419 10.9454 7.74519 11.5113 7.75016 12.0819C7.75513 12.6525 7.87397 13.2164 8.09966 13.7406C8.3238 14.2611 8.64882 14.7321 9.05584 15.1264L18.9526 25L9.05582 34.8736C8.64881 35.268 8.32379 35.7389 8.09966 36.2594C7.87397 36.7836 7.75513 37.3475 7.75016 37.9181C7.74519 38.4887 7.85419 39.0546 8.07072 39.5826C8.28725 40.1106 8.60693 40.5901 9.01097 40.9932H9.01097C9.415 41.3963 9.89529 41.7149 10.4237 41.9306C10.9522 42.1463 11.5183 42.2548 12.089 42.2498C12.6598 42.2449 13.2239 42.1266 13.7486 41.9017C14.2695 41.6785 14.7413 41.3545 15.1366 40.9485L25.0375 31.0707L34.9454 40.9555L34.9531 40.9631L34.9609 40.9707C35.7724 41.7526 36.8587 42.1848 37.9857 42.175C39.1126 42.1652 40.1912 41.7143 40.989 40.9184C41.7869 40.1223 42.24 39.0449 42.2498 37.918C42.2597 36.791 41.8254 35.7059 41.0414 34.8961L41.0339 34.8883L41.0262 34.8806L31.1224 25L41.0262 15.1194Z" stroke="#C4C4C4" stroke-width="2.5"/>
</g>
</svg>
