<svg width="35" height="35" viewBox="0 0 170 170" fill="none" xmlns="http://www.w3.org/2000/svg">
<g id="figma-svgrepo-com 1">
<path id="Vector" d="M81.5306 0H55.6611C41.3737 0 29.7915 11.5822 29.7915 25.8696C29.7915 40.157 41.3737 51.7391 55.6611 51.7391H81.5306V0Z" fill="#333333"/>
<path id="Vector_2" d="M88.6958 0H114.565C128.853 0 140.435 11.5822 140.435 25.8696C140.435 40.157 128.853 51.7391 114.565 51.7391H88.6958V0Z" fill="#333333"/>
<path id="Vector_3" d="M81.5306 58.9038H55.6611C41.3737 58.9038 29.7915 70.486 29.7915 84.7734C29.7915 99.0608 41.3737 110.643 55.6611 110.643H81.5306V58.9038Z" fill="#333333"/>
<path id="Vector_4" d="M81.5306 117.808H55.6611C41.3737 117.808 29.7915 129.39 29.7915 143.677C29.7915 157.965 41.3737 169.547 55.6611 169.547C69.9485 169.547 81.5306 157.965 81.5306 143.677V117.808Z" fill="#333333"/>
<path id="Vector_5" d="M114.565 110.643C128.853 110.643 140.435 99.0608 140.435 84.7734C140.435 70.486 128.853 58.9038 114.565 58.9038C100.278 58.9038 88.6958 70.486 88.6958 84.7734C88.6958 99.0608 100.278 110.643 114.565 110.643Z" fill="#333333"/>
</g>
</svg>
