<svg width="50" height="50" viewBox="0 0 50 50" fill="none" xmlns="http://www.w3.org/2000/svg">
<g id="toggle-off">
<g id="Icons1">
<g id="toggle-off_2">
<path id="Vector" d="M32.6752 12.025C40.507 12.1738 47.2683 20.6536 44.0968 28.9886C42.346 33.5898 37.7015 36.8794 32.6752 36.975C27.5175 37.0083 22.3598 37.0083 17.2021 36.975C9.17316 36.8228 2.27709 27.6985 6.07072 19.3144C8.00039 15.0492 12.4627 12.1148 17.2021 12.025C22.3598 11.9917 27.5175 11.9917 32.6752 12.025ZM17.3726 15.3503C11.4247 15.3886 6.27034 22.0551 9.10163 28.314C10.5106 31.4281 13.7711 33.5823 17.2437 33.648C22.3739 33.6805 27.5033 33.6805 32.6336 33.648C38.401 33.5391 43.3008 27.276 40.9869 21.1942C39.706 17.8264 36.3166 15.421 32.6327 15.3511C27.5466 15.3187 22.4596 15.3503 17.3726 15.3503Z" fill="#C4C4C4"/>
<path id="Vector_2" d="M32.5156 32.8296C37.1161 32.8296 40.8456 29.1001 40.8456 24.4996C40.8456 19.899 37.1161 16.1696 32.5156 16.1696C27.915 16.1696 24.1855 19.899 24.1855 24.4996C24.1855 29.1001 27.915 32.8296 32.5156 32.8296Z" fill="#C4C4C4"/>
</g>
</g>
</g>
</svg>
