<svg xmlns="http://www.w3.org/2000/svg" width="666" height="878" viewBox="0 0 666 878" fill="none">
<g filter="url(#filter0_d_1_3)">
<path d="M192 778.5L178.5 868.5H470L454 723L447.5 574L428.5 489.5L489 286L565.5 136.5L648.5 77V40L597 34.5L607 17.5L565.5 6L547.5 40L489 114L440.5 189.5L378 316.5L370.5 286L352.5 236.5L322 215.5L275.5 210.5L245.5 218.5L217.5 267L202.5 326L185.5 388.5L173.5 446H108.5L96 439L67.5 446L78 489.5L67.5 494L64.5 532L45 547.5V574H72.5L57 621.5L0 664L7 689.5L26.5 695.5L64.5 667.5L72.5 723L99 745.5L130 732L164 689.5L192 680.5L205.5 710.5L212 745.5L192 778.5Z" fill="white"/>
</g>
<defs>
<filter id="filter0_d_1_3" x="0" y="0.5" width="666" height="877.5" filterUnits="userSpaceOnUse" color-interpolation-filters="sRGB">
<feFlood flood-opacity="0" result="BackgroundImageFix"/>
<feColorMatrix in="SourceAlpha" type="matrix" values="0 0 0 0 0 0 0 0 0 0 0 0 0 0 0 0 0 0 127 0" result="hardAlpha"/>
<feOffset dx="10" dy="2"/>
<feGaussianBlur stdDeviation="3.75"/>
<feComposite in2="hardAlpha" operator="out"/>
<feColorMatrix type="matrix" values="0 0 0 0 0 0 0 0 0 0 0 0 0 0 0 0 0 0 0.25 0"/>
<feBlend mode="normal" in2="BackgroundImageFix" result="effect1_dropShadow_1_3"/>
<feBlend mode="normal" in="SourceGraphic" in2="effect1_dropShadow_1_3" result="shape"/>
</filter>
</defs>
</svg>