<svg width="50" height="50" viewBox="0 0 50 50" fill="none" xmlns="http://www.w3.org/2000/svg">
<g id="open">
<path id="Vector" d="M14 20.64C17.866 20.64 21 17.506 21 13.64C21 9.77402 17.866 6.64001 14 6.64001C10.134 6.64001 7 9.77402 7 13.64C7 17.506 10.134 20.64 14 20.64Z" stroke="#C4C4C4" stroke-width="2.5" stroke-linecap="round" stroke-linejoin="round"/>
<path id="Vector_2" d="M36 20.64C39.866 20.64 43 17.506 43 13.64C43 9.77402 39.866 6.64001 36 6.64001C32.134 6.64001 29 9.77402 29 13.64C29 17.506 32.134 20.64 36 20.64Z" stroke="#C4C4C4" stroke-width="2.5" stroke-linecap="round" stroke-linejoin="round"/>
<path id="Vector_3" d="M14 42.64C17.866 42.64 21 39.506 21 35.64C21 31.774 17.866 28.64 14 28.64C10.134 28.64 7 31.774 7 35.64C7 39.506 10.134 42.64 14 42.64Z" stroke="#C4C4C4" stroke-width="2.5" stroke-linecap="round" stroke-linejoin="round"/>
<path id="Vector_4" d="M36 42.64C39.866 42.64 43 39.506 43 35.64C43 31.774 39.866 28.64 36 28.64C32.134 28.64 29 31.774 29 35.64C29 39.506 32.134 42.64 36 42.64Z" stroke="#C4C4C4" stroke-width="2.5" stroke-linecap="round" stroke-linejoin="round"/>
</g>
</svg>
